<svg xmlns="http://www.w3.org/2000/svg" version="1.1" xmlns:xlink="http://www.w3.org/1999/xlink" viewBox="0 0 200 200"><rect width="200" height="200" fill="url('#gradient')"></rect><defs><linearGradient id="gradient" gradientTransform="rotate(45 0.5 0.5)"><stop offset="0%" stop-color="#9f9f9f"></stop><stop offset="100%" stop-color="#6e6e6e"></stop></linearGradient></defs><g><g fill="#ffffff" transform="matrix(6.0401101061738105,0,0,6.0401101061738105,25.190541220810573,142.9445585278231)" stroke="#ffffff" stroke-width="0"><path d="M3.65-14.22L6.28-8.05L8.90-14.22L12.60-14.22L8.02-5.11L8.02 0L4.54 0L4.54-5.11L-0.03-14.22L3.65-14.22ZM18.31 0L13.63 0L13.63-14.22L18.21-14.22Q20.10-14.22 21.60-13.36Q23.11-12.51 23.95-10.95Q24.79-9.39 24.80-7.46L24.80-7.46L24.80-6.81Q24.80-4.85 23.98-3.31Q23.15-1.76 21.66-0.88Q20.16-0.01 18.31 0L18.31 0ZM18.21-11.57L17.06-11.57L17.06-2.64L18.25-2.64Q19.73-2.64 20.52-3.69Q21.31-4.74 21.31-6.81L21.31-6.81L21.31-7.42Q21.31-9.48 20.52-10.53Q19.73-11.57 18.21-11.57L18.21-11.57Z"></path></g></g></svg>